<svg xmlns="http://www.w3.org/2000/svg" xmlns:xlink="http://www.w3.org/1999/xlink" version="1.1" id="Calque_1" x="0px" y="0px" style="enable-background:new 0 0 841.9 595.3;" xml:space="preserve" viewBox="208.2 238.9 278.8 94.8">
<style type="text/css">
	.st0{fill:#226086;}
	.st1{fill:#3CABDE;}
</style>
<path class="st0" d="M233.7,256.4h12.6v51.1c0,2.9-0.5,5.6-1.5,7.9c-1,2.4-2.3,4.4-4,6.1c-1.7,1.7-3.7,3-6,4  c-2.3,0.9-4.8,1.4-7.4,1.4c-6.5,0-11.4-1.8-14.5-5.4c-3.1-3.6-4.7-8.5-4.7-14.6h11.9c0,2.7,0.5,4.9,1.5,6.5c1,1.6,2.7,2.4,5.2,2.4  c2.5,0,4.3-0.8,5.3-2.3c1-1.6,1.5-3.7,1.5-6.4V256.4z M233.7,250.7v-11.8h12.6v11.8H233.7z"/>
<path class="st0" d="M297.5,304.3v-65.4H310v23.7c3.6-5,8.3-7.5,14.2-7.5c3.1,0,5.9,0.6,8.3,1.8c2.4,1.2,4.5,2.9,6.2,5.1  c1.7,2.2,3,4.8,3.8,7.8c0.9,3,1.3,6.3,1.3,10c0,4-0.5,7.6-1.6,10.8c-1,3.2-2.5,5.9-4.3,8.1c-1.8,2.2-4,3.9-6.6,5.1  c-2.6,1.2-5.3,1.8-8.3,1.8c-6,0-10.4-2.4-13.3-7.1l-0.1,5.8H297.5z M320.2,295.3c3.2,0,5.8-1.3,7.8-4c2-2.7,3-6.2,3-10.5  c0-9.9-3.6-14.8-10.9-14.8c-7.1,0-10.6,5.2-10.6,15.6c0,4.1,1,7.4,3.1,9.9C314.6,294,317.1,295.3,320.2,295.3z"/>
<path class="st0" d="M348,304.3v-65.4h12.5v23.7c3.6-5,8.3-7.5,14.2-7.5c3.1,0,5.9,0.6,8.3,1.8c2.4,1.2,4.5,2.9,6.2,5.1  c1.7,2.2,3,4.8,3.8,7.8c0.9,3,1.3,6.3,1.3,10c0,4-0.5,7.6-1.6,10.8c-1,3.2-2.5,5.9-4.3,8.1c-1.8,2.2-4,3.9-6.6,5.1  c-2.6,1.2-5.3,1.8-8.3,1.8c-6,0-10.4-2.4-13.3-7.1l-0.1,5.8H348z M370.7,295.3c3.2,0,5.8-1.3,7.8-4c2-2.7,3-6.2,3-10.5  c0-9.9-3.6-14.8-10.9-14.8c-7.1,0-10.6,5.2-10.6,15.6c0,4.1,1,7.4,3.1,9.9C365.1,294,367.6,295.3,370.7,295.3z"/>
<path class="st0" d="M427.3,270.9c-0.3-2.2-1.2-3.8-2.5-4.8c-1.3-1-3.4-1.5-6.1-1.5c-2.6,0-4.6,0.3-5.9,0.9c-1.3,0.6-2,1.7-2,3.2  c0,1.3,0.7,2.3,2,3.1c1.3,0.8,3.3,1.5,5.8,2.2c4.2,1.2,7.7,2.2,10.5,3c2.9,0.8,5.1,1.8,6.9,2.9c1.7,1.1,3,2.5,3.7,4.1  c0.7,1.7,1.1,3.9,1.1,6.7c0,4.3-1.8,7.8-5.4,10.7c-3.6,2.8-8.9,4.2-15.9,4.2c-3.4,0-6.6-0.4-9.3-1.2c-2.8-0.8-5.2-1.9-7.2-3.4  c-2-1.5-3.5-3.2-4.6-5.3c-1.1-2-1.6-4.3-1.7-6.9h13c0,2.3,0.9,4.1,2.7,5.3c1.8,1.2,4.1,1.9,7,1.9c2.4,0,4.5-0.4,6.2-1.1  c1.7-0.7,2.6-1.9,2.6-3.5c0-1.8-0.6-3-1.9-3.8c-1.3-0.8-3.2-1.5-5.8-2c-4.7-1-8.4-2.1-11.3-3.3c-2.9-1.1-5.1-2.4-6.7-3.8  c-1.6-1.4-2.7-2.9-3.2-4.5c-0.6-1.6-0.8-3.4-0.8-5.5c0-1.8,0.4-3.5,1.1-5.2c0.7-1.6,1.9-3.1,3.6-4.3c1.6-1.2,3.7-2.2,6.3-3  c2.6-0.7,5.8-1.1,9.5-1.1c6.9,0,11.9,1.4,15.1,4.2c3.2,2.8,4.9,6.6,5.3,11.6H427.3z"/>
<path class="st0" d="M474.4,298c-0.9,2.1-2.5,3.8-4.9,5c-2.4,1.2-5,1.8-8,1.8c-2.5,0-4.9-0.4-7-1.2c-2.1-0.8-4-2-5.5-3.5  c-1.6-1.5-2.8-3.3-3.6-5.4c-0.9-2.1-1.3-4.5-1.3-7.2v-31h12.6v29.2c0,6,2.7,9,8.1,9c2.9,0,5.3-0.8,7.1-2.5c1.8-1.7,2.7-3.8,2.7-6.4  v-29.2H487v49.1c0,3.4-0.6,6.4-1.7,9c-1.1,2.7-2.7,4.9-4.7,6.7c-2,1.8-4.3,3.2-7,4.2c-2.7,1-5.6,1.5-8.6,1.5  c-7.1,0-12.4-1.8-15.9-5.4c-3.5-3.6-5.3-8.5-5.3-14.7h11.8c0,2.9,0.8,5.1,2.5,6.7c1.7,1.6,4.1,2.4,7.4,2.4c1.2,0,2.3-0.2,3.3-0.7  c1-0.5,2-1.2,2.8-2c0.8-0.9,1.5-2,1.9-3.2c0.5-1.3,0.7-2.7,0.7-4.3V298z"/>
<path class="st1" d="M262.2,290c-3.8-4.8-4-11.4-1-16.4c-5.3,4.5-6.2,12.4-2,17.8c3.4,4.3,9.1,5.9,14.1,4.2  C269.1,295.5,265,293.6,262.2,290z"/>
<g>
	<path class="st1" d="M271.9,251.9v8c6.9,0,13.4,3.1,17.6,8.6c7.6,9.7,5.8,23.8-3.9,31.3c-4,3.1-8.7,4.7-13.7,4.7   c-6.9,0-13.4-3.1-17.6-8.6c-7.6-9.7-5.8-23.8,3.9-31.3c4-3.1,8.7-4.7,13.7-4.7L271.9,251.9 M271.9,251.9c-6.5,0-13.1,2.1-18.6,6.4   c-13.2,10.3-15.6,29.4-5.3,42.6c6,7.7,14.9,11.7,23.9,11.7c6.5,0,13.1-2.1,18.6-6.4c13.2-10.3,15.6-29.4,5.3-42.6   C289.8,255.9,280.9,251.9,271.9,251.9L271.9,251.9z"/>
</g>
<g>
	<path class="st1" d="M296.7,305.2c-1.1,0-2.2,0.3-3.1,1.1l-1.4,1.1c-2.2,1.7-2.6,4.8-0.9,7l13.5,17.4c1,1.3,2.5,1.9,4,1.9   c1.1,0,2.2-0.3,3.1-1.1l1.4-1.1c2.2-1.7,2.6-4.8,0.9-7l-13.5-17.4C299.7,305.9,298.2,305.2,296.7,305.2L296.7,305.2z"/>
</g>
<g>
</g>
<g>
</g>
<g>
</g>
<g>
</g>
<g>
</g>
<g>
</g>
</svg>