<?xml version="1.0" encoding="utf-8"?>
<!-- Generator: Adobe Illustrator 16.0.0, SVG Export Plug-In . SVG Version: 6.00 Build 0)  -->
<!DOCTYPE svg PUBLIC "-//W3C//DTD SVG 1.1//EN" "http://www.w3.org/Graphics/SVG/1.1/DTD/svg11.dtd">
<svg version="1.1" id="Calque_1" xmlns="http://www.w3.org/2000/svg" xmlns:xlink="http://www.w3.org/1999/xlink" x="0px" y="0px"
	 width="326.866px" height="51.069px" viewBox="0 0 326.866 51.069" enable-background="new 0 0 326.866 51.069"
	 xml:space="preserve">
<g>
	<path d="M10.459,33.728c0,6.486,5.091,9.012,10.872,9.012c3.784,0,9.563-1.094,9.563-6.073c0-5.26-7.362-6.147-14.586-8.059
		c-7.294-1.911-14.656-4.71-14.656-13.861C1.652,4.779,11.147,0,20.022,0c10.253,0,19.679,4.439,19.679,15.702H29.242
		c-0.344-5.87-4.54-7.373-9.7-7.373c-3.44,0-7.431,1.434-7.431,5.531c0,3.755,2.338,4.232,14.655,7.374
		c3.577,0.887,14.586,3.141,14.586,14.2c0,8.944-7.087,15.635-20.435,15.635c-10.871,0-21.053-5.323-20.916-17.342H10.459z"/>
	<path d="M51.453,34.488c0.275,6.192,3.302,9.013,8.737,9.013c3.922,0,7.088-2.408,7.707-4.611h8.6
		c-2.753,8.395-8.6,11.973-16.65,11.973c-11.215,0-18.165-7.706-18.165-18.713c0-10.666,7.363-18.784,18.165-18.784
		c12.109,0,17.957,10.183,17.27,21.123H51.453z M67.347,28.295c-0.895-4.953-3.027-7.568-7.775-7.568
		c-6.192,0-7.981,4.816-8.118,7.568H67.347z"/>
	<path d="M78.026,14.327h9.287v4.956h0.207c2.477-3.991,6.742-5.918,10.871-5.918c10.389,0,13.004,5.847,13.004,14.653v21.88h-9.771
		v-20.09c0-5.849-1.72-8.738-6.263-8.738c-5.297,0-7.567,2.958-7.567,10.182v18.646h-9.769V14.327z"/>
	<path d="M121.47,38.34c0.069,4.267,3.647,5.986,7.5,5.986c2.817,0,6.396-1.101,6.396-4.54c0-2.96-4.059-3.991-11.075-5.505
		c-5.642-1.238-11.282-3.233-11.282-9.496c0-9.08,7.842-11.42,15.479-11.42c7.773,0,14.93,2.613,15.685,11.352h-9.289
		c-0.272-3.783-3.164-4.814-6.672-4.814c-2.199,0-5.434,0.412-5.434,3.301c0,3.509,5.503,3.99,11.074,5.3
		c5.711,1.306,11.284,3.37,11.284,9.974c0,9.359-8.118,12.386-16.235,12.386c-8.256,0-16.307-3.096-16.721-12.522H121.47z"/>
	<path d="M155.728,8.823h-9.769v-8.05h9.769V8.823z M145.959,14.327h9.769v35.571h-9.769V14.327z"/>
	<path d="M175.05,13.365c11.214,0,18.438,7.43,18.438,18.783c0,11.283-7.225,18.714-18.438,18.714
		c-11.146,0-18.37-7.431-18.37-18.714C156.68,20.795,163.904,13.365,175.05,13.365 M175.05,43.501c6.674,0,8.669-5.711,8.669-11.353
		c0-5.712-1.995-11.422-8.669-11.422c-6.604,0-8.601,5.71-8.601,11.422C166.449,37.79,168.445,43.501,175.05,43.501"/>
</g>
<g>
	<path fill="#82E83F" d="M195.349,49.579V1.357h9.817v40.03h19.409v8.191H195.349z"/>
	<path fill="#82E83F" d="M234.742,25.104l-8.457-1.526c0.95-3.404,2.587-5.925,4.909-7.562c2.32-1.636,5.77-2.454,10.347-2.454
		c4.157,0,7.252,0.492,9.286,1.476c2.034,0.984,3.467,2.233,4.295,3.748c0.83,1.515,1.244,4.295,1.244,8.341l-0.1,10.879
		c0,3.096,0.149,5.378,0.447,6.849c0.299,1.47,0.857,3.046,1.676,4.726h-9.221c-0.243-0.619-0.541-1.536-0.895-2.753
		c-0.156-0.552-0.266-0.917-0.332-1.095c-1.592,1.549-3.295,2.709-5.107,3.482c-1.813,0.774-3.748,1.161-5.805,1.161
		c-3.626,0-6.483-0.983-8.572-2.951c-2.09-1.968-3.135-4.455-3.135-7.463c0-1.989,0.476-3.764,1.426-5.323
		c0.951-1.559,2.283-2.752,3.997-3.581c1.713-0.829,4.185-1.554,7.412-2.173c4.356-0.817,7.374-1.58,9.054-2.288v-0.929
		c0-1.791-0.441-3.068-1.326-3.831s-2.554-1.144-5.008-1.144c-1.658,0-2.951,0.326-3.881,0.979
		C236.069,22.323,235.317,23.467,234.742,25.104z M247.212,32.665c-1.193,0.397-3.084,0.873-5.671,1.426s-4.278,1.095-5.074,1.625
		c-1.216,0.862-1.823,1.957-1.823,3.283c0,1.306,0.485,2.433,1.459,3.383c0.973,0.951,2.211,1.427,3.715,1.427
		c1.68,0,3.283-0.553,4.809-1.658c1.127-0.841,1.867-1.868,2.222-3.085c0.243-0.796,0.364-2.31,0.364-4.543V32.665z"/>
	<path fill="#82E83F" d="M260.093,49.579V0.959h9.318V18.47c2.875-3.271,6.279-4.908,10.215-4.908c4.289,0,7.838,1.554,10.646,4.66
		c2.808,3.106,4.212,7.567,4.212,13.382c0,6.015-1.432,10.646-4.295,13.896s-6.341,4.875-10.431,4.875
		c-2.012,0-3.996-0.503-5.953-1.509s-3.643-2.493-5.058-4.461v5.174H260.093z M269.345,31.205c0,3.648,0.575,6.347,1.725,8.093
		c1.614,2.477,3.759,3.715,6.435,3.715c2.056,0,3.808-0.879,5.257-2.637c1.447-1.758,2.172-4.527,2.172-8.309
		c0-4.023-0.729-6.926-2.188-8.705c-1.46-1.78-3.328-2.67-5.604-2.67c-2.234,0-4.092,0.868-5.572,2.604
		C270.086,25.031,269.345,27.668,269.345,31.205z"/>
	<path fill="#82E83F" d="M293.967,39.53l9.353-1.427c0.398,1.813,1.205,3.19,2.422,4.13c1.215,0.939,2.918,1.409,5.107,1.409
		c2.409,0,4.223-0.442,5.438-1.327c0.817-0.618,1.228-1.447,1.228-2.487c0-0.707-0.222-1.293-0.664-1.758
		c-0.464-0.441-1.504-0.851-3.117-1.227c-7.518-1.658-12.283-3.173-14.294-4.544c-2.786-1.901-4.179-4.544-4.179-7.927
		c0-3.051,1.205-5.615,3.615-7.694c2.409-2.077,6.146-3.117,11.209-3.117c4.82,0,8.402,0.785,10.746,2.354
		c2.344,1.57,3.957,3.892,4.842,6.965l-8.789,1.625c-0.376-1.37-1.089-2.421-2.139-3.15c-1.051-0.729-2.549-1.095-4.494-1.095
		c-2.454,0-4.212,0.344-5.273,1.028c-0.707,0.486-1.061,1.117-1.061,1.891c0,0.663,0.309,1.227,0.928,1.691
		c0.84,0.619,3.742,1.492,8.707,2.62c4.963,1.127,8.429,2.51,10.396,4.146c1.945,1.658,2.918,3.969,2.918,6.932
		c0,3.229-1.348,6.003-4.045,8.324c-2.698,2.321-6.689,3.482-11.973,3.482c-4.799,0-8.596-0.973-11.393-2.919
		C296.659,45.511,294.829,42.869,293.967,39.53z"/>
</g>
</svg>
