<svg xmlns="http://www.w3.org/2000/svg" xmlns:xlink="http://www.w3.org/1999/xlink" width="361" height="68" viewBox="0 0 361 68">
  <defs>
    <path id="symfonycasts-logo-a" d="M65.69,39.604 L1.57,39.604 C1.475,39.597 1.45,39.601 1.357,39.574 C1.044,39.487 0.803,39.192 0.781,38.866 C0.761,38.579 0.912,38.286 1.159,38.136 C1.252,38.08 1.355,38.043 1.462,38.028 C1.498,38.023 1.534,38.023 1.569,38.021 L7.589,38.021 C5.444,35.926 5.094,33.39 5.6,31.743 C6.274,29.555 8.012,29.14 9.711,29.662 C11.531,30.225 12.243,32.439 11.722,34.139 C11.664,34.321 11.571,34.624 11.38,35.032 C11.169,35.499 10.777,35.911 10.609,36.459 C10.423,37.065 10.698,37.591 11.172,38.022 L18.498,38.022 C19.026,37.519 19.423,36.902 19.634,36.21 C20.29,34.09 18.95,32.609 18.395,32.042 L15.696,29.15 C14.462,27.774 11.746,23.937 13.071,19.628 C13.582,17.966 14.657,16.204 16.218,15.037 C19.513,12.579 23.096,12.175 26.507,13.157 C30.923,14.428 33.043,17.35 35.793,19.608 C37.333,15.088 39.466,10.663 42.675,6.93 C45.573,3.53 49.466,1.066 53.925,0.913 C58.38,0.766 61.748,2.788 61.859,5.988 C61.904,7.35 61.124,9.997 58.406,10.089 C56.373,10.159 54.969,8.943 54.906,7.096 C54.883,6.419 55.058,5.827 55.521,5.134 C55.974,4.246 56.071,4.144 56.06,3.758 C56.019,2.593 54.263,2.551 53.783,2.573 C47.193,2.791 45.456,11.694 44.049,18.932 L43.359,22.749 C47.154,23.305 49.848,22.62 51.351,21.646 C53.467,20.271 50.759,18.858 51.101,17.295 C51.447,15.701 52.895,14.932 54.046,14.899 C55.656,14.859 56.806,16.532 56.769,18.23 C56.711,21.037 52.992,24.893 45.552,24.735 C44.646,24.714 43.812,24.651 43.034,24.556 L41.631,32.312 C41.258,34.053 40.85,35.983 40.303,38.019 L65.69,38.019 L65.797,38.026 C65.832,38.034 65.868,38.038 65.903,38.048 C66.18,38.126 66.405,38.365 66.464,38.649 C66.537,39.001 66.34,39.391 66.005,39.537 C65.939,39.565 65.869,39.585 65.797,39.595 C65.763,39.601 65.726,39.601 65.69,39.604 L65.69,39.604 Z M31.574,38.02 C31.7,37.38 31.827,36.721 31.956,36.045 L32.405,33.316 C33.136,29.659 33.946,25.581 35.181,21.517 C32.184,19.259 30.39,16.459 26.36,15.365 C23.597,14.615 21.914,15.251 20.73,16.75 C19.328,18.525 19.794,20.835 21.148,22.189 L23.386,24.668 C26.13,27.841 27.63,30.311 27.066,33.633 C26.791,35.261 26.006,36.772 24.834,38.019 L31.574,38.019 L31.574,38.02 Z"/>
    <path id="symfonycasts-logo-c" d="M43.554,12.132 L34.665,36.597 C33.009,41.197 31.259,46.504 25.4,46.504 C23.981,46.504 23.174,46.316 22.372,46.175 L22.491,44.647 C22.662,43.565 23.427,42.862 24.44,42.916 C24.537,42.924 24.638,42.933 24.736,42.933 C28.708,42.933 30.032,37.488 30.032,37.018 C30.032,36.503 29.464,35.282 29.179,34.483 L21,12.132 L24.099,12.132 C24.107,12.132 24.112,12.137 24.123,12.137 C25.064,12.137 25.974,12.781 26.364,13.65 L32.346,31.947 L32.441,31.947 L38.558,13.64 C38.953,12.775 39.86,12.137 40.797,12.137 C40.808,12.137 40.81,12.132 40.82,12.132 L43.554,12.132 L43.554,12.132 Z M175.124,12.132 L166.234,36.597 C164.578,41.197 162.827,46.504 156.966,46.504 C155.549,46.504 154.741,46.316 153.938,46.175 L154.059,44.647 C154.231,43.565 154.996,42.862 156.005,42.916 C156.106,42.924 156.204,42.933 156.301,42.933 C160.274,42.933 161.6,37.488 161.6,37.018 C161.6,36.503 161.031,35.282 160.745,34.483 L152.567,12.132 L155.666,12.132 C155.674,12.132 155.679,12.137 155.687,12.137 C156.628,12.137 157.541,12.781 157.931,13.65 L163.913,31.947 L164.01,31.947 L170.124,13.64 C170.518,12.775 171.427,12.137 172.363,12.137 C172.374,12.137 172.38,12.132 172.386,12.132 L175.124,12.132 L175.124,12.132 Z M112.918,11.569 C120.247,11.569 125.16,16.829 125.16,24.106 C125.16,30.961 120.152,36.641 112.918,36.641 C105.639,36.641 100.627,30.961 100.627,24.106 C100.627,16.829 105.54,11.569 112.918,11.569 L112.918,11.569 Z M201.6,4.128 C199.908,3.241 196.007,2.914 194.08,2.914 C183.929,2.914 177.538,9.868 177.538,19.763 C177.538,29.845 183.741,36.612 194.08,36.612 C196.147,36.612 199.813,36.285 201.6,35.212 L201.6,35.212 C201.558,34.595 201.246,34.028 200.745,33.662 C200.245,33.296 199.607,33.166 199.002,33.309 C197.348,33.695 195.479,33.812 194.081,33.812 C185.435,33.812 180.781,27.978 180.781,19.764 C180.781,11.69 185.575,5.716 194.081,5.716 C195.52,5.716 197.219,5.843 198.794,6.202 C199.449,6.354 200.14,6.211 200.681,5.812 C201.221,5.413 201.558,4.797 201.599,4.129 C201.6,4.128 201.6,4.128 201.6,4.128 L201.6,4.128 Z M219.32,32.224 C218.005,35.071 214.668,36.611 211.707,36.611 C204.893,36.611 203.811,32.037 203.811,29.89 C203.811,21.909 212.365,21.536 218.568,21.536 L219.132,21.536 L219.132,20.323 C219.132,16.262 217.675,14.209 213.681,14.209 C212.073,14.209 210.524,14.442 209.034,14.985 C208.486,15.186 207.875,15.108 207.396,14.777 C206.917,14.445 206.631,13.902 206.631,13.323 L206.631,13.323 C208.464,12.436 211.566,11.689 213.681,11.689 C219.602,11.689 222.093,14.35 222.093,20.557 C222.093,20.557 222.128,29.245 222.147,33.627 C222.15,34.276 221.889,34.9 221.424,35.357 C220.958,35.814 220.328,36.065 219.675,36.056 C219.513,36.054 219.413,36.052 219.413,36.052 L219.413,32.225 L219.32,32.225 L219.32,32.224 Z M255.295,35.491 C257.409,36.331 259.712,36.611 262.015,36.611 C265.634,36.611 270.38,34.884 270.38,29.844 C270.38,22.049 258.584,22.61 258.584,18.176 C258.584,15.142 260.699,14.209 263.754,14.209 C264.664,14.209 265.718,14.337 266.741,14.571 C267.33,14.71 267.95,14.591 268.444,14.245 C268.938,13.898 269.259,13.357 269.325,12.76 C269.346,12.762 269.346,12.762 269.346,12.762 C267.232,11.968 264.694,11.688 263.425,11.688 C259.477,11.688 255.623,13.462 255.623,18.175 C255.623,25.083 267.137,24.196 267.137,29.843 C267.137,32.55 264.647,34.09 261.827,34.09 C260.535,34.09 259.287,33.899 258.125,33.575 C257.489,33.395 256.806,33.505 256.26,33.875 C255.713,34.245 255.361,34.837 255.297,35.491 C255.295,35.491 255.295,35.491 255.295,35.491 L255.295,35.491 Z M225.19,35.491 C227.304,36.331 229.607,36.611 231.91,36.611 C235.529,36.611 240.275,34.884 240.275,29.844 C240.275,22.049 228.48,22.61 228.48,18.176 C228.48,15.142 230.594,14.209 233.649,14.209 C234.559,14.209 235.614,14.337 236.636,14.571 C237.225,14.71 237.845,14.591 238.339,14.245 C238.834,13.898 239.154,13.357 239.22,12.76 C239.241,12.762 239.241,12.762 239.241,12.762 C237.126,11.968 234.589,11.688 233.319,11.688 C229.372,11.688 225.518,13.462 225.518,18.175 C225.518,25.083 237.032,24.196 237.032,29.843 C237.032,32.55 234.542,34.09 231.721,34.09 C230.429,34.09 229.181,33.899 228.02,33.575 C227.383,33.395 226.701,33.505 226.154,33.875 C225.608,34.245 225.256,34.837 225.191,35.491 C225.19,35.491 225.19,35.491 225.19,35.491 L225.19,35.491 Z M247.867,14.769 L247.867,30.17 C247.867,32.317 248.666,34.09 251.063,34.09 C251.29,34.09 251.501,34.081 251.699,34.05 C252.257,33.998 252.811,34.171 253.24,34.529 C253.668,34.888 253.933,35.402 253.976,35.957 L253.976,35.957 C253.271,36.237 251.815,36.61 250.358,36.61 C245.094,36.61 244.906,33.017 244.906,28.676 L244.906,14.769 C244.906,14.769 244.349,14.769 243.669,14.769 C243.023,14.769 242.403,14.514 241.946,14.061 C241.489,13.608 241.232,12.992 241.232,12.351 L241.232,12.249 L244.906,12.249 L244.906,6.044 C244.906,6.044 245.133,6.04 245.459,6.034 C246.094,6.022 246.707,6.264 247.16,6.706 C247.612,7.147 247.867,7.752 247.867,8.382 L247.867,12.248 L253.319,12.248 L253.319,12.35 C253.319,12.991 253.062,13.607 252.605,14.06 C252.148,14.513 251.529,14.768 250.882,14.768 L247.867,14.768 L247.867,14.769 Z M7.519,36.592 L7.491,36.592 C5.241,36.592 3.002,35.98 0.818,35.279 L0.952,33.988 C1.079,32.834 1.896,31.961 2.893,32.123 C4.481,32.621 6.367,33.052 8.105,33.058 C11.074,33.053 15.384,31.416 15.406,26.981 C15.372,22.73 11.33,21.276 7.643,19.516 C3.885,17.709 0.391,15.712 0.38,10.561 C0.396,4.67 4.983,1.583 11.162,1.545 C12.857,1.545 14.804,1.778 16.666,2.237 L16.584,3.685 C16.463,4.682 15.611,5.473 14.593,5.398 C14.577,5.398 14.577,5.413 14.566,5.413 C13.602,5.203 12.615,5.082 11.381,5.082 C11.376,5.082 11.362,5.082 11.352,5.084 C8.509,5.08 4.825,6.127 4.81,10.112 C4.881,13.864 8.895,15.131 12.568,16.995 C16.31,18.883 19.828,21.19 19.839,26.682 C19.819,33.8 14.44,36.542 7.519,36.592 L7.519,36.592 Z M91.638,36.078 L89.191,36.078 L89.191,15.703 L85.519,15.703 C85.514,15.703 85.509,15.698 85.504,15.698 C84.491,15.698 83.66,14.956 83.515,13.993 L83.515,12.133 L89.191,12.133 L89.191,10.232 C89.191,4.408 90.705,0.605 97.274,0.605 C98.406,0.605 99.356,0.745 100.253,0.887 L100.177,2.333 C100.114,3.388 99.233,4.247 98.169,4.17 C98.158,4.17 98.16,4.182 98.153,4.182 C98.08,4.179 98.005,4.173 97.934,4.173 C94.107,4.173 93.634,6.617 93.634,9.856 L93.634,12.133 L100.018,12.133 L100.018,13.8 C99.967,14.838 99.125,15.67 98.08,15.704 L93.635,15.704 L93.635,34.348 C93.498,35.321 92.665,36.078 91.647,36.078 C91.64,36.077 91.643,36.078 91.638,36.078 L91.638,36.078 Z M49.553,36.078 L47.145,36.078 L47.145,12.132 L49.271,12.132 C49.278,12.132 49.284,12.137 49.292,12.137 C50.399,12.137 51.291,13.022 51.307,14.117 L51.307,15.608 L51.402,15.608 C53.101,12.837 55.513,11.569 59.058,11.569 C61.849,11.569 64.637,12.978 65.916,16.218 C67.57,12.792 71.21,11.569 73.383,11.569 C79.532,11.569 81.751,15.514 81.751,20.727 L81.751,34.516 C81.548,35.411 80.749,36.077 79.79,36.077 C79.787,36.077 79.787,36.078 79.785,36.078 L77.31,36.078 L77.31,21.806 C77.31,18.847 76.598,15.139 73.005,15.139 C68.469,15.139 66.67,19.553 66.67,24.014 L66.67,34.256 C66.575,35.277 65.726,36.078 64.676,36.078 C64.671,36.078 64.67,36.079 64.668,36.079 L62.228,36.079 L62.228,21.806 C62.228,18.847 61.516,15.139 57.924,15.139 C53.385,15.139 51.589,19.553 51.589,24.014 L51.589,34.015 C51.584,34.034 51.574,34.046 51.574,34.076 C51.574,35.18 50.672,36.077 49.558,36.077 C49.557,36.077 49.554,36.078 49.553,36.078 L49.553,36.078 Z M131.593,36.078 L129.152,36.078 L129.152,12.132 L131.415,12.132 C131.423,12.132 131.425,12.137 131.436,12.137 C132.549,12.137 133.452,13.033 133.452,14.142 C133.452,14.146 133.457,14.146 133.457,14.149 L133.457,15.939 L133.549,15.939 C134.876,13.215 138.088,11.57 141.446,11.57 C147.686,11.57 150.476,15.422 150.476,21.854 L150.476,34.168 C150.426,35.23 149.553,36.078 148.472,36.078 C148.466,36.078 148.466,36.079 148.464,36.079 L146.029,36.079 L146.029,23.684 C146.029,18.095 144.805,15.373 140.925,15.14 C135.866,15.14 133.596,19.178 133.596,24.999 L133.596,34.235 C133.514,35.265 132.658,36.078 131.6,36.078 C131.594,36.077 131.593,36.078 131.593,36.078 L131.593,36.078 Z M219.132,25.503 C219.132,28.07 218.99,34.09 212.035,34.09 C209.309,34.09 207.054,32.923 207.054,29.797 C207.054,24.569 213.164,24.056 218.286,24.056 L219.132,24.056 L219.132,25.503 L219.132,25.503 Z M112.917,33.077 C118.115,33.077 120.431,28.381 120.431,24.106 C120.431,19.553 117.644,15.139 112.917,15.139 C108.144,15.139 105.353,19.553 105.353,24.106 C105.353,28.381 107.669,33.077 112.917,33.077 L112.917,33.077 Z"/>
  </defs>
  <g fill="none" fill-rule="evenodd" transform="translate(10 4)">
    <mask id="symfonycasts-logo-b" fill="#fff">
      <use xlink:href="#symfonycasts-logo-a"/>
    </mask>
    <rect width="74.7" height="47.7" x="-3.72" y="-3.596" fill="#1AB4FC" fill-rule="nonzero" mask="url(#symfonycasts-logo-b)"/>
    <path fill="#1AB4FC" fill-rule="nonzero" d="M61.98 51.859C61.98 52.188 61.839 52.434 61.558 52.597L55.37 56.148C55.089 56.312 54.807 56.312 54.526 56.148 54.245 55.984 54.104 55.738 54.104 55.41L54.104 48.097C54.104 47.769 54.245 47.523 54.526 47.359 54.807 47.195 55.089 47.195 55.37 47.359L61.558 51.121C61.839 51.285 61.98 51.531 61.98 51.859L61.98 51.859zM65.021 56.113C64.235 57.449 63.175 58.509 61.839 59.295 60.503 60.08 59.049 60.473 57.48 60.473 55.909 60.473 54.457 60.08 53.121 59.295 51.785 58.509 50.724 57.449 49.939 56.113 49.153 54.777 48.761 53.324 48.761 51.754 48.761 50.184 49.153 48.731 49.939 47.395 50.724 46.059 51.785 44.999 53.121 44.213 54.457 43.428 55.91 43.035 57.48 43.035 59.05 43.035 60.503 43.428 61.839 44.213 63.175 44.999 64.235 46.059 65.021 47.395 65.806 48.731 66.199 50.185 66.199 51.754 66.199 53.324 65.806 54.777 65.021 56.113L65.021 56.113zM51.398 55.27C52.031 56.348 52.886 57.204 53.964 57.836 55.042 58.469 56.214 58.785 57.48 58.785 58.746 58.785 59.917 58.469 60.996 57.836 62.074 57.203 62.93 56.348 63.562 55.27 64.195 54.192 64.511 53.02 64.511 51.754 64.511 50.488 64.195 49.316 63.562 48.238 62.929 47.16 62.073 46.304 60.996 45.672 59.917 45.039 58.746 44.723 57.48 44.723 56.214 44.723 55.042 45.039 53.964 45.672 52.885 46.305 52.03 47.161 51.398 48.238 50.765 49.316 50.449 50.488 50.449 51.754 50.449 53.02 50.765 54.192 51.398 55.27L51.398 55.27zM20.696 46.445C20.919 46.656 21.03 46.914 21.03 47.218L21.03 56.253C21.03 56.582 20.919 56.851 20.696 57.062 20.473 57.273 20.209 57.378 19.905 57.378 19.671 57.378 19.46 57.308 19.272 57.167L15.405 54.776 15.405 56.815C15.405 57.284 15.229 57.682 14.878 58.01 14.526 58.339 14.092 58.502 13.577 58.502L2.608 58.502C2.092 58.502 1.659 58.338 1.307 58.01.955 57.682.78 57.284.78 56.815L.78 46.691C.78 46.222.956 45.824 1.307 45.496 1.659 45.168 2.092 45.004 2.608 45.004L13.577 45.004C14.092 45.004 14.526 45.168 14.878 45.496 15.23 45.825 15.405 46.223 15.405 46.691L15.405 48.73 19.272 46.339C19.46 46.198 19.67 46.128 19.905 46.128 20.209 46.129 20.473 46.234 20.696 46.445L20.696 46.445zM13.717 46.727C13.694 46.704 13.647 46.692 13.576 46.692L2.608 46.692C2.561 46.692 2.514 46.704 2.467 46.727L2.467 56.782C2.49 56.805 2.537 56.817 2.608 56.817L13.577 56.817C13.624 56.817 13.67 56.805 13.718 56.782L13.718 49.786 13.718 46.727 13.717 46.727zM19.342 48.273L15.404 50.734 15.404 52.773 19.342 55.234 19.342 48.273 19.342 48.273zM31.57 53.652C32.437 55.129 33.574 56.301 34.98 57.168L34.98 46.27 29.953 48.379C30.093 50.348 30.632 52.105 31.57 53.652L31.57 53.652 31.57 53.652zM43.136 46.305C42.948 46.024 42.69 45.825 42.363 45.707L35.613 42.894C35.191 42.706 34.769 42.706 34.347 42.894L27.597 45.707C27.268 45.825 27.011 46.023 26.824 46.305 26.636 46.586 26.543 46.903 26.543 47.254 26.543 49.457 26.941 51.531 27.738 53.477 28.441 55.212 29.413 56.724 30.656 58.012 31.781 59.207 33.011 60.074 34.347 60.614 34.769 60.801 35.191 60.801 35.613 60.614 36.784 60.145 37.909 59.384 38.988 58.329 40.277 57.063 41.308 55.587 42.082 53.899 42.972 51.883 43.418 49.669 43.418 47.254 43.417 46.902 43.323 46.586 43.136 46.305L43.136 46.305zM40.71 52.738C40.1 54.262 39.256 55.598 38.179 56.746 37.195 57.824 36.128 58.597 34.98 59.066 33.808 58.574 32.718 57.777 31.71 56.675 30.655 55.527 29.823 54.179 29.214 52.632 28.557 50.944 28.23 49.152 28.23 47.253L34.98 44.44 41.73 47.253C41.73 49.2 41.39 51.028 40.71 52.738L40.71 52.738 40.71 52.738z"/>
    <g transform="translate(76 12)">
      <mask id="symfonycasts-logo-d" fill="#fff">
        <use xlink:href="#symfonycasts-logo-c"/>
      </mask>
      <rect width="279" height="54.9" x="-4.12" y="-3.896" fill="#7F796E" fill-rule="nonzero" mask="url(#symfonycasts-logo-d)"/>
    </g>
  </g>
</svg>
